<svg xmlns="http://www.w3.org/2000/svg" width="256" height="256" viewBox="0 0 256 256">
  <defs>
    <linearGradient id="g" x1="0" y1="0" x2="1" y2="1">
      <stop offset="0" stop-color="#5A0F22"/>
      <stop offset="1" stop-color="#D8B6A4"/>
    </linearGradient>
  </defs>

  <!-- Background -->
  <rect x="16" y="16" width="224" height="224" rx="56" fill="#0f0a0a"/>
  <rect x="16" y="16" width="224" height="224" rx="56" fill="url(#g)" opacity="0.10"/>

  <!-- Crown -->
  <path
    d="M78 90l18 20 32-28 32 28 18-20 10 56H68l10-56z"
    fill="none"
    stroke="url(#g)"
    stroke-width="10"
    stroke-linejoin="round"
  />
  <path d="M78 146h100" stroke="url(#g)" stroke-width="10" stroke-linecap="round"/>

  <!-- Monogram: sr -->
  <path
    d="M84 180c6 10 18 16 34 16 18 0 30-7 30-18 0-10-9-14-24-17l-10-2c-9-2-14-5-14-12 0-8 9-13 22-13 11 0 20 4 26 12"
    fill="none"
    stroke="#D8B6A4"
    stroke-width="10"
    stroke-linecap="round"
  />
  <path
    d="M152 204v-58c0-12 9-20 22-20 10 0 18 5 22 13"
    fill="none"
    stroke="#D8B6A4"
    stroke-width="10"
    stroke-linecap="round"
    stroke-linejoin="round"
  />
</svg>

